<svg height="505pt" viewBox="0 -14 505.96107 505" width="505pt" xmlns="http://www.w3.org/2000/svg"><path d="m369.042969 162.691406c-4.917969-59.132812-55.492188-103.925781-114.785157-101.660156-59.289062 2.261719-106.304687 50.78125-106.695312 110.117188 0 0-42.667969 0-67.925781 17.066406h8.191406c33.015625 7.621094 85.042969 19.53125 99.027344 55.089844 6.511719 16.546874 3.910156 34.757812 7.484375 51.882812 4.09375 15.765625 10.9375 30.679688 20.214844 44.066406 17.894531 27.527344 43.960937 48.761719 74.539062 60.714844 6.457031 2.488281 13.078125 4.527344 19.816406 6.101562 45.644532 10.597657 93.632813-.199218 130.339844-29.324218 36.707031-29.128906 58.125-73.40625 58.179688-120.265625v-42.667969h-247.46875l119.125.511719zm0 0" fill="#285680"/><path d="m87.828125 188.214844c-25.601563-59.734375-85.332031-119.46875-85.332031-119.46875 42.664062 85.335937 0 110.933594 0 110.933594 25.597656 0 85.332031 8.535156 85.332031 8.535156-34.132813 17.066406-85.332031 76.800781-85.332031 76.800781s25.597656-51.203125 0-85.335937" fill="#4482c3"/><path d="m226.75 355.636719c-11.777344 36.4375-5.800781 114.175781-5.800781 114.175781s-18.175781-54.269531-60.332031-60.328125" fill="#4482c3"/><path d="m226.578125 355.382812c-4.09375 3.070313-48.722656 36.863282-65.960937 54.101563 0 0 12.03125-48.300781-78.507813-78.421875 0 0 83.714844 0 143.957031 23.722656" fill="#4482c3"/><path d="m471.828125 213.8125-30.582031-45.875c-.792969-1.1875-2.125-1.898438-3.550782-1.898438-1.425781 0-2.757812.710938-3.550781 1.898438l-30.582031 45.875-30.585938-45.875c-.789062-1.1875-2.121093-1.898438-3.546874-1.898438-1.429688 0-2.761719.710938-3.550782 1.898438l-30.585937 45.875-30.582031-45.875c-.792969-1.1875-2.125-1.898438-3.550782-1.898438-1.425781 0-2.757812.710938-3.550781 1.898438l-30.582031 45.875zm0 0" fill="#d1d4d1"/><path d="m292.628906 102.878906c-4.714844 0-8.535156-3.820312-8.535156-8.53125v-34.132812c.039062-32.976563 26.761719-59.695313 59.734375-59.734375h42.667969c32.972656.039062 59.695312 26.757812 59.730468 59.734375 0 4.710937-3.820312 8.53125-8.53125 8.53125-4.714843 0-8.535156-3.820313-8.535156-8.53125-.027344-23.554688-19.113281-42.640625-42.664062-42.667969h-42.667969c-23.554687.027344-42.640625 19.113281-42.667969 42.667969v34.132812c0 4.710938-3.820312 8.53125-8.53125 8.53125zm0 0" fill="#2c3e50"/><path d="m267.027344 145.546875c0 9.425781-7.640625 17.066406-17.066406 17.066406-9.425782 0-17.066407-7.640625-17.066407-17.066406s7.640625-17.066406 17.066407-17.066406c9.425781 0 17.066406 7.640625 17.066406 17.066406zm0 0" fill="#fff"/><path d="m352.359375 367.414062c0 4.710938-3.820313 8.53125-8.53125 8.53125-4.714844 0-8.535156-3.820312-8.535156-8.53125 0-4.714843 3.820312-8.535156 8.535156-8.535156 4.710937 0 8.53125 3.820313 8.53125 8.535156zm0 0" fill="#2c3e50"/><path d="m292.628906 341.8125c0 4.714844-3.820312 8.535156-8.535156 8.535156-4.710938 0-8.53125-3.820312-8.53125-8.535156 0-4.710938 3.820312-8.53125 8.53125-8.53125 4.714844 0 8.535156 3.820312 8.535156 8.53125zm0 0" fill="#2c3e50"/><g fill="#2c2f38"><path d="m130.496094 51.679688c0 4.714843-3.820313 8.535156-8.535156 8.535156-4.710938 0-8.53125-3.820313-8.53125-8.535156 0-4.710938 3.820312-8.53125 8.53125-8.53125 4.714843 0 8.535156 3.820312 8.535156 8.53125zm0 0"/><path d="m258.496094 145.546875c0 4.714844-3.820313 8.535156-8.535156 8.535156-4.710938 0-8.53125-3.820312-8.53125-8.535156 0-4.710937 3.820312-8.53125 8.53125-8.53125 4.714843 0 8.535156 3.820313 8.535156 8.53125zm0 0"/><path d="m96.359375 85.8125c0 4.714844-3.820313 8.535156-8.53125 8.535156-4.714844 0-8.535156-3.820312-8.535156-8.535156 0-4.710938 3.820312-8.53125 8.535156-8.53125 4.710937 0 8.53125 3.820312 8.53125 8.53125zm0 0"/><path d="m480.359375 418.613281c0 4.714844-3.820313 8.535157-8.53125 8.535157-4.714844 0-8.535156-3.820313-8.535156-8.535157 0-4.710937 3.820312-8.53125 8.535156-8.53125 4.710937 0 8.53125 3.820313 8.53125 8.53125zm0 0"/><path d="m454.761719 461.28125c0 4.710938-3.820313 8.53125-8.535157 8.53125-4.710937 0-8.53125-3.820312-8.53125-8.53125 0-4.714844 3.820313-8.535156 8.53125-8.535156 4.714844 0 8.535157 3.820312 8.535157 8.535156zm0 0"/><path d="m87.828125 401.546875c0 4.714844-3.820313 8.535156-8.535156 8.535156-4.710938 0-8.53125-3.820312-8.53125-8.535156 0-4.710937 3.820312-8.53125 8.53125-8.53125 4.714843 0 8.535156 3.820313 8.535156 8.53125zm0 0"/><path d="m62.226562 444.214844c0 4.710937-3.820312 8.53125-8.53125 8.53125-4.714843 0-8.535156-3.820313-8.535156-8.53125 0-4.714844 3.820313-8.535156 8.535156-8.535156 4.710938 0 8.53125 3.820312 8.53125 8.535156zm0 0"/><path d="m113.429688 461.28125c0 4.710938-3.824219 8.53125-8.535157 8.53125-4.714843 0-8.535156-3.820312-8.535156-8.53125 0-4.714844 3.820313-8.535156 8.535156-8.535156 4.710938 0 8.535157 3.820312 8.535157 8.535156zm0 0"/></g><path d="m412.09375 341.8125c0 4.714844-3.820312 8.535156-8.53125 8.535156-4.714844 0-8.535156-3.820312-8.535156-8.535156 0-4.710938 3.820312-8.53125 8.535156-8.53125 4.710938 0 8.53125 3.820312 8.53125 8.53125zm0 0" fill="#2c3e50"/><path d="m497.429688 223.953125h-247.46875c-4.710938 0-8.53125-3.820313-8.53125-8.535156 0-4.710938 3.820312-8.53125 8.53125-8.53125h247.46875c4.710937 0 8.53125 3.820312 8.53125 8.53125 0 4.714843-3.820313 8.535156-8.53125 8.535156zm0 0" fill="#2c3e50"/><path d="m8.636719 273.546875c-3.332031 0-6.359375-1.941406-7.75-4.96875-1.394531-3.027344-.8945315-6.589844 1.273437-9.121094 20.582032-23.910156 43.253906-45.941406 67.746094-65.824219-19.480469-2.421874-46.488281-5.417968-61.269531-5.417968-4.710938 0-8.53125-3.820313-8.53125-8.535156 0-4.710938 3.820312-8.53125 8.53125-8.53125 25.910156 0 84.070312 8.265624 86.539062 8.617187 3.699219.523437 6.625 3.394531 7.226563 7.082031.597656 3.6875-1.273438 7.335938-4.617188 9.003906-32.210937 16.101563-82.167968 74.136719-82.671875 74.71875-1.617187 1.890626-3.984375 2.976563-6.476562 2.976563zm0 0" fill="#285680"/><path d="m93.972656 196.746094c-3.414062 0-6.5-2.035156-7.84375-5.171875-24.644531-57.488281-82.941406-116.207031-83.523437-116.792969-2.21875-2.144531-3.109375-5.316406-2.328125-8.300781s3.113281-5.3125 6.09375-6.09375c2.984375-.78125 6.15625.109375 8.300781 2.328125 2.484375 2.484375 61.191406 61.59375 87.140625 122.136718 1.132812 2.636719.863281 5.664063-.71875 8.058594-1.578125 2.394532-4.253906 3.835938-7.121094 3.835938zm0 0" fill="#285680"/><path d="m227.082031 478.347656c-4.464843.011719-8.1875-3.421875-8.53125-7.875-.25-3.246094-5.972656-79.847656 6.195313-117.453125.808594-3.054687 3.238281-5.414062 6.3125-6.128906 3.078125-.714844 6.300781.328125 8.375 2.710937 2.070312 2.382813 2.660156 5.714844 1.523437 8.664063-11.09375 34.40625-5.460937 110.132813-5.410156 110.933594.355469 4.664062-3.113281 8.746093-7.773437 9.148437-.246094 0-.46875 0-.691407 0zm0 0" fill="#285680"/><path d="m232.210938 363.328125c-1.070313-.003906-2.128907-.207031-3.121094-.597656-58.027344-22.84375-140.015625-23.136719-140.800782-23.136719-4.714843 0-8.535156-3.820312-8.535156-8.53125 0-4.714844 3.820313-8.535156 8.535156-8.535156 3.480469 0 86.042969.273437 147.078126 24.3125 3.835937 1.492187 6.058593 5.5 5.292968 9.542968-.765625 4.039063-4.300781 6.957032-8.414062 6.945313zm0 0" fill="#285680"/><path d="m166.761719 418.015625c-3.453125 0-6.5625-2.078125-7.882813-5.265625-1.320312-3.191406-.589844-6.859375 1.847656-9.300781 18.40625-18.414063 66.398438-54.535157 66.886719-54.894531 2.4375-1.828126 5.667969-2.21875 8.472657-1.019532 2.800781 1.195313 4.753906 3.800782 5.117187 6.824219.367187 3.027344-.910156 6.019531-3.351563 7.847656-.46875.351563-47.460937 35.730469-65.050781 53.308594-1.597656 1.609375-3.773437 2.507813-6.039062 2.5zm0 0" fill="#285680"/><path d="m412.09375 102.878906c0-14.136718 25.601562-42.664062 25.601562-42.664062s25.597657 28.527344 25.597657 42.664062c0 14.140625-11.460938 25.601563-25.597657 25.601563-14.140624 0-25.601562-11.460938-25.601562-25.601563zm0 0" fill="#f0c419"/><path d="m249.960938 137.015625c-.019532 4.007813-2.824219 7.460937-6.742188 8.300781-3.917969.84375-7.894531-1.15625-9.554688-4.804687 1.695313-5.363281 5.898438-9.566407 11.261719-11.261719 3.058594 1.375 5.027344 4.410156 5.035157 7.765625zm0 0" fill="#fff"/></svg>