<svg id="Layer_3" enable-background="new 0 0 64 64" height="512" viewBox="0 0 64 64" width="512" xmlns="http://www.w3.org/2000/svg"><g><g><circle cx="14" cy="10" fill="#c7e2fc" r="8"/></g><circle cx="32" cy="32" fill="#c7e2fc" r="17"/><path d="m48 26c5.523 0 10-4.477 10-10s-4.477-10-10-10-10 4.477-10 10v.089c4.562 1.721 8.19 5.349 9.911 9.911z" fill="#ebf7fe"/><g><path d="m46 31.999h-2c0-6.617-5.383-12-12-12v-2c7.719.001 14 6.281 14 14z" fill="#ebf7fe"/></g><circle cx="54" cy="54" fill="#ebf7fe" r="8"/><g><path d="m58.999 53.999h-2c0-1.654-1.346-3-3-3v-2c2.757.001 5 2.243 5 5z" fill="#c7e2fc"/></g><g><path d="m19 9.999h-2c0-1.654-1.346-3-3-3v-1.999c2.757 0 5 2.242 5 4.999z" fill="#ebf7fe"/></g><g><path d="m54.999 15.999h-2c0-2.757-2.243-5-5-5v-1.999c3.86 0 7 3.14 7 6.999z" fill="#c7e2fc"/></g><circle cx="15" cy="58" fill="#c7e2fc" r="4"/><circle cx="6" cy="40" fill="#c7e2fc" r="4"/><g fill="#ebf7fe"><circle cx="9" cy="28" r="4"/><circle cx="56" cy="35" r="3"/><circle cx="35" cy="55" r="3"/><circle cx="32" cy="8" r="2"/><circle cx="14" cy="49" r="2"/></g></g></svg>