<svg id="Capa_1" enable-background="new 0 0 512 512" height="512" viewBox="0 0 512 512" width="512" xmlns="http://www.w3.org/2000/svg"><g><path d="m362.47 215.46 26.369-35.651c-68.963-128.136-201.545-137.28-201.545-137.28l-37.459 74.918z" fill="#455da0"/><path d="m206.011 410.206 64.542 59.264s70.059-37.576 107.517-101.458l-31.055-34.983z" fill="#214070"/><path d="m409.87 267.281s-110.2 149.84-260.03 149.84c-18.94 0-37.05-3.51-53.73-9.92v-279.83c16.68-6.41 34.79-9.92 53.73-9.92 149.83 0 260.03 149.83 260.03 149.83z" fill="#00b3ff"/><path d="m409.87 267.281s-110.2 149.84-260.03 149.84c-18.94 0-37.05-3.51-53.73-9.92v-139.92z" fill="#276eff"/><path d="m187.29 267.281c0 61.94-37.58 117.04-91.18 139.92-56.21-21.6-96.11-76.1-96.11-139.92s39.9-118.31 96.11-139.91c53.6 22.88 91.18 77.97 91.18 139.91z" fill="#c2f4ff"/><path d="m0 267.281h187.29c0 61.94-37.58 117.04-91.18 139.92-56.21-21.6-96.11-76.1-96.11-139.92z" fill="#99bef3"/><path d="m490.98 267.281c0 51.17 21.02 92.65 21.02 92.65-56.05 0-102.13-92.65-102.13-92.65s46.08-92.65 102.13-92.65c0 0-21.02 41.48-21.02 92.65z" fill="#455da0"/><path d="m512 359.931c-56.05 0-102.13-92.65-102.13-92.65h81.11c0 51.17 21.02 92.65 21.02 92.65z" fill="#214070"/><path d="m78.6 252.281h30.09v30h-30.09z" fill="#455da0"/><path d="m78.6 267.281h30.09v15h-30.09z" fill="#214070"/></g></svg>