<svg id="Capa_1" enable-background="new 0 0 511.931 511.931" height="512" viewBox="0 0 511.931 511.931" width="512" xmlns="http://www.w3.org/2000/svg"><g><path d="m323.623 328.154-93.37-23.706c-7.165-1.818-14.589 1.854-17.489 8.655-.469 1.1-11.582 27.32-19.692 60.301-11.361 46.202-11.108 81.964.751 106.29 3.186 6.534 10.611 9.855 17.613 7.847 42.264-12.104 77.005-40.589 100.467-82.373 17.453-31.083 22.58-58.644 22.789-59.802 1.403-7.754-3.432-15.273-11.069-17.212z" fill="#6aa6fb"/><path d="m511.931 222.987v64c0 8.28-6.72 15-15 15h-57c-27.422 0-51.636 80-136 80-117.508 0-153.729 56-208 56-8.28 0-15-6.72-15-15 0-79.027 7.217-166.214 8.38-171.37 22.42-97.16-37.79-204.12-38.4-205.19-5.611-9.786 1.241-22.086 12.57-22.43 3.47-.11 86.03-2.41 169.64 12.57 85.52 15.29 140.62 43.17 163.77 82.86 51.66 88.56 76.25 88.56 100.04 88.56 8.28 0 15 6.72 15 15z" fill="#de5b5b"/><path d="m511.931 254.987v32c0 8.28-6.72 15-15 15h-57c-27.422 0-51.636 80-136 80-117.508 0-153.729 56-208 56-8.28 0-15-6.72-15-15 0-81.18 6.84-156.57 7.92-168z" fill="#e20059"/><path d="m241.851 41.547c-2.25-2.62-5.33-4.38-8.73-4.98-83.61-14.98-166.17-12.68-169.64-12.57-11.321.344-18.185 12.637-12.57 22.43.61 1.07 60.82 108.03 38.4 205.19-1.349 5.98-8.38 92.86-8.38 171.37 0 8.28 6.72 15 15 15 47.806 0 81.862-43.617 169.6-53.84 4.94-.58 9.27-3.56 11.57-7.97 54.326-104.398 43.731-242.814-35.25-334.63z" fill="#e20059"/><path d="m310.291 254.987c-2.69 42.83-14.03 84.37-33.19 121.19-2.3 4.41-6.63 7.39-11.57 7.97-87.842 10.235-121.714 53.84-169.6 53.84-8.28 0-15-6.72-15-15 0-81.18 6.84-156.57 7.92-168z" fill="#b10042"/><path d="m349.321 225.587c-5.58-5.58-6.119-14.897 0-21.21 9.458-9.455 25.61-2.663 25.61 10.61 0 13.348-16.208 20.002-25.61 10.6z" fill="#700019"/><path d="m169.501 254.987c.22 12.97-3.26 27.25-13.57 41-2.7 3.6-6.87 5.8-11.37 5.99-20.71.87-40.09 4.8-57.6 11.66-7.53 2.96-15.53 4.38-23.5 4.38-35.738 0-64.545-26.921-63.43-63.03 1.272-43.101 44.419-75.332 86.93-58.65 17.51 6.86 36.89 10.79 57.6 11.66 4.5.19 8.67 2.39 11.37 5.99 6.13 8.17 13.27 23.37 13.57 41z" fill="#faf17d"/><path d="m169.501 254.987c.22 12.97-3.26 27.25-13.57 41-2.7 3.6-6.87 5.8-11.37 5.99-20.71.87-40.09 4.8-57.6 11.66-7.53 2.96-15.53 4.38-23.5 4.38-35.738 0-64.545-26.921-63.43-63.03z" fill="#f2d131"/></g></svg>