<?xml version="1.0" encoding="iso-8859-1"?>
<!-- Generator: Adobe Illustrator 19.0.0, SVG Export Plug-In . SVG Version: 6.00 Build 0)  -->
<svg version="1.1" id="Capa_1" xmlns="http://www.w3.org/2000/svg" xmlns:xlink="http://www.w3.org/1999/xlink" x="0px" y="0px"
	 viewBox="0 0 512 512" style="enable-background:new 0 0 512 512;" xml:space="preserve">
<g>
	<path style="fill:#E683B5;" d="M188.004,511.671c-3.218,0.567-6.613,0.416-9.957-0.578c-11.51-3.424-18.065-15.529-14.642-27.039
		c2.722-9.153,0.951-19.197-4.737-26.867c-13.798-18.603-18.093-42.964-11.491-65.167c2.723-9.153,0.952-19.195-4.737-26.865
		c-13.799-18.604-18.094-42.965-11.491-65.167c2.722-9.153,0.952-19.195-4.737-26.865c-7.153-9.644-5.134-23.262,4.511-30.415
		c9.644-7.157,23.261-5.135,30.415,4.51c13.799,18.604,18.094,42.965,11.491,65.167c-2.722,9.153-0.952,19.195,4.737,26.865
		c13.799,18.604,18.094,42.965,11.491,65.167c-2.722,9.153-0.952,19.195,4.737,26.865c13.798,18.604,18.094,42.966,11.491,65.168
		C202.656,504.615,195.858,510.287,188.004,511.671z"/>
	<path style="fill:#E683B5;" d="M308.988,490.339c-3.217,0.567-6.612,0.416-9.957-0.578c-11.51-3.424-18.065-15.529-14.642-27.039
		c2.722-9.153,0.951-19.197-4.737-26.867c-13.798-18.603-18.093-42.964-11.491-65.167c2.723-9.153,0.952-19.195-4.737-26.865
		c-13.799-18.604-18.094-42.966-11.491-65.167c2.722-9.153,0.952-19.195-4.737-26.865c-7.153-9.644-5.134-23.262,4.511-30.415
		c9.642-7.156,23.262-5.135,30.415,4.51c13.8,18.604,18.096,42.965,11.491,65.167c-2.721,9.153-0.95,19.195,4.737,26.865
		c13.8,18.604,18.096,42.965,11.491,65.167c-2.721,9.153-0.95,19.195,4.737,26.865c13.799,18.604,18.095,42.965,11.492,65.168
		C323.64,483.282,316.841,488.954,308.988,490.339z"/>
	<path style="fill:#E683B5;" d="M429.973,469.006c-3.217,0.567-6.612,0.416-9.958-0.578c-11.509-3.424-18.065-15.529-14.642-27.039
		c2.723-9.153,0.952-19.197-4.737-26.867c-13.797-18.603-18.093-42.964-11.491-65.167c2.723-9.153,0.952-19.195-4.736-26.866
		c-13.8-18.604-18.096-42.965-11.491-65.167c2.721-9.153,0.95-19.195-4.737-26.865c-7.154-9.644-5.135-23.262,4.51-30.415
		c9.645-7.157,23.262-5.135,30.415,4.51c13.8,18.604,18.096,42.965,11.491,65.167c-2.721,9.153-0.95,19.195,4.737,26.865
		c13.8,18.604,18.096,42.965,11.491,65.167c-2.721,9.153-0.95,19.195,4.737,26.865c13.799,18.604,18.094,42.965,11.492,65.168
		C444.626,461.949,437.827,467.621,429.973,469.006z"/>
</g>
<g>
	<path style="opacity:0.25;fill:#A95425;enable-background:new    ;" d="M403.106,204.553c-7.153-9.645-20.77-11.667-30.415-4.51
		c-9.645,7.153-11.664,20.771-4.51,30.415c5.688,7.67,7.458,17.712,4.737,26.865c-1.979,6.651-2.959,13.496-3.019,20.322
		l44.685-7.879c0.004-0.015,0.008-0.03,0.012-0.045C421.202,247.518,416.907,223.157,403.106,204.553z"/>
	<path style="opacity:0.25;fill:#A95425;enable-background:new    ;" d="M282.121,225.886c-7.153-9.645-20.773-11.667-30.415-4.51
		c-9.645,7.153-11.664,20.771-4.511,30.415c5.689,7.67,7.46,17.712,4.737,26.865c-1.978,6.651-2.958,13.496-3.018,20.321
		l44.685-7.879c0.004-0.015,0.008-0.03,0.012-0.045C300.217,268.851,295.921,244.49,282.121,225.886z"/>
	<path style="opacity:0.25;fill:#A95425;enable-background:new    ;" d="M161.138,247.219c-7.155-9.645-20.771-11.667-30.415-4.51
		c-9.645,7.153-11.664,20.771-4.511,30.415c5.689,7.67,7.46,17.712,4.737,26.865c-1.978,6.651-2.958,13.496-3.018,20.322
		l44.686-7.879c0.005-0.015,0.008-0.03,0.012-0.045C179.232,290.184,174.936,265.823,161.138,247.219z"/>
</g>
<path style="fill:#E683B5;" d="M258.763,2.305L189.3,14.553c-44.087,7.774-82.487,34.63-104.913,73.375l0,0
	c-30.79,53.195-35.695,117.512-13.326,174.761l0,0c7.149,18.296,26.214,29.008,45.559,25.597l304.063-53.615
	c19.345-3.411,33.596-19.997,34.056-39.635l0,0c1.439-61.447-25.167-120.208-72.294-159.664l0,0
	C348.12,6.635,302.851-5.469,258.763,2.305z"/>
<path style="fill:#F8E686;" d="M446.756,133.902c-6.698,1.832-13.092,4.88-18.816,9.126c-14.329,10.628-32.826,13.89-49.926,8.803
	l0,0c-17.1-5.086-35.597-1.825-49.926,8.803l0,0c-14.329,10.628-32.826,13.89-49.926,8.803c-17.1-5.086-35.597-1.825-49.926,8.803
	c-14.329,10.628-32.826,13.89-49.926,8.803l0,0c-17.1-5.086-35.597-1.825-49.926,8.803l0,0
	c-14.329,10.628-32.826,13.89-49.926,8.803c-6.83-2.032-13.881-2.709-20.802-2.14c1.351,20.4,5.796,40.698,13.407,60.178l0,0
	c7.149,18.296,26.214,29.008,45.559,25.597l304.063-53.615c19.345-3.411,33.597-19.997,34.056-39.635l0,0
	C455.229,174.129,452.464,153.534,446.756,133.902z"/>
<g>
	
		<ellipse transform="matrix(-0.1736 -0.9848 0.9848 -0.1736 72.187 315.057)" style="fill:#FFFFFF;" cx="168.282" cy="127.241" rx="22.19" ry="27.867"/>
	
		<ellipse transform="matrix(0.1736 0.9848 -0.9848 0.1736 361.4635 -228.7884)" style="fill:#FFFFFF;" cx="317.055" cy="100.983" rx="22.19" ry="27.867"/>
</g>
<g>
	<path style="fill:#495059;" d="M168.32,108.117c-3.572,0-6.736-2.56-7.377-6.199l-2.077-11.779
		c-0.719-4.079,2.005-7.969,6.084-8.688c4.083-0.721,7.969,2.004,8.689,6.084l2.077,11.779c0.719,4.079-2.005,7.969-6.084,8.688
		C169.191,108.08,168.752,108.117,168.32,108.117z"/>
	
		<ellipse transform="matrix(-0.1736 -0.9848 0.9848 -0.1736 185.4666 350.2866)" style="fill:#495059;" cx="239.703" cy="97.327" rx="25.14" ry="22.467"/>
	<path style="fill:#495059;" d="M307.897,83.506c-3.571,0-6.735-2.56-7.377-6.198l-2.077-11.779c-0.72-4.079,2.004-7.97,6.083-8.688
		c4.079-0.72,7.97,2.003,8.689,6.083l2.077,11.779c0.72,4.079-2.004,7.97-6.083,8.688C308.768,83.469,308.329,83.506,307.897,83.506
		z"/>
</g>
<g>
	<path style="opacity:0.15;fill:#A95425;enable-background:new    ;" d="M452.549,207.38
		C162.194,240.824,122.382,97.6,144.834,29.806c-24.938,13.169-46.007,33.176-60.446,58.123l0,0
		c-30.79,53.195-35.695,117.512-13.326,174.761l0,0c7.149,18.296,26.214,29.008,45.559,25.597l304.063-53.615
		C435.796,232.007,447.801,221.301,452.549,207.38z"/>
	<g style="opacity:0.2;">
		<circle style="fill:#A95425;" cx="401.6" cy="104.77" r="7.441"/>
		<circle style="fill:#A95425;" cx="371.34" cy="70.12" r="7.441"/>
		<circle style="fill:#A95425;" cx="115.23" cy="137.02" r="7.441"/>
		<circle style="fill:#A95425;" cx="96.58" cy="176.09" r="7.441"/>
		<circle style="fill:#A95425;" cx="137.91" cy="245.87" r="7.441"/>
	</g>
</g>
<g>
</g>
<g>
</g>
<g>
</g>
<g>
</g>
<g>
</g>
<g>
</g>
<g>
</g>
<g>
</g>
<g>
</g>
<g>
</g>
<g>
</g>
<g>
</g>
<g>
</g>
<g>
</g>
<g>
</g>
</svg>
