<svg id="Capa_1" enable-background="new 0 0 502 502" height="512" viewBox="0 0 502 502" width="512" xmlns="http://www.w3.org/2000/svg" xmlns:xlink="http://www.w3.org/1999/xlink"><linearGradient id="lg1"><stop offset="0" stop-color="#eca0aa"/><stop offset="1" stop-color="#f8dde3"/></linearGradient><linearGradient id="SVGID_1_" gradientUnits="userSpaceOnUse" x1="131.913" x2="-9.186" xlink:href="#lg1" y1="326.986" y2="326.986"/><linearGradient id="lg2"><stop offset="0" stop-color="#ec6f80"/><stop offset="1" stop-color="#eca0aa"/></linearGradient><linearGradient id="SVGID_2_" gradientUnits="userSpaceOnUse" x1="149.253" x2="-27.386" xlink:href="#lg2" y1="315.587" y2="315.587"/><linearGradient id="SVGID_3_" gradientTransform="matrix(-1 0 0 1 504.342 0)" gradientUnits="userSpaceOnUse" x1="134.256" x2="-6.843" xlink:href="#lg1" y1="326.986" y2="326.986"/><linearGradient id="SVGID_4_" gradientTransform="matrix(-1 0 0 1 504.342 0)" gradientUnits="userSpaceOnUse" x1="151.595" x2="-25.044" xlink:href="#lg2" y1="315.587" y2="315.587"/><linearGradient id="SVGID_5_" gradientUnits="userSpaceOnUse" x1="249.468" x2="249.468" xlink:href="#lg1" y1="326.452" y2="562.991"/><linearGradient id="SVGID_6_" gradientUnits="userSpaceOnUse" x1="249.468" x2="249.468" xlink:href="#lg2" y1="-6.815" y2="475.805"/><g><path d="m4.373 376.038c-6.468-28.152 11.111-56.216 39.263-62.684 48.252-11.085 59.629-27.816 102.778-63.86 22.169-18.518 55.153-15.559 73.67 6.612 18.518 22.168 15.558 55.152-6.611 73.669-41.699 34.833-70.365 68.054-146.415 85.526-28.155 6.469-56.217-11.114-62.685-39.263z" fill="url(#SVGID_1_)"/><path d="m202.924 317.952 28.066-16.973c3.386-15.29-.09-31.925-10.906-44.873-18.516-22.171-51.5-25.129-73.67-6.612-43.149 36.044-54.527 52.775-102.778 63.86-28.152 6.467-45.731 34.532-39.263 62.684 25 24.451 82.053 38.057 198.551-58.086z" fill="url(#SVGID_2_)"/><path d="m497.627 376.038c6.468-28.152-11.111-56.216-39.262-62.684-48.252-11.085-59.629-27.816-102.778-63.86-22.169-18.518-55.153-15.559-73.67 6.612-18.518 22.168-15.558 55.152 6.611 73.669 41.699 34.833 70.366 68.054 146.415 85.526 28.154 6.469 56.216-11.114 62.684-39.263z" fill="url(#SVGID_3_)"/><path d="m299.077 317.952-28.066-16.973c-3.386-15.29.09-31.925 10.906-44.873 18.516-22.171 51.5-25.129 73.67-6.612 43.149 36.044 54.527 52.775 102.778 63.86 28.152 6.467 45.731 34.532 39.262 62.684-25 24.451-82.053 38.057-198.55-58.086z" fill="url(#SVGID_4_)"/><path d="m413.434 410.379c-13.593-12.418-25.896-27.142-36.527-42.377-16.171-23.175-13.889-54.274 4.82-75.453 27.082-30.657 43.651-70.818 44.054-114.845.889-96.97-77.808-177.016-174.781-177.7-97.816-.689-177.326 78.397-177.326 176.053 0 44.902 16.813 85.872 44.484 116.969 18.507 20.799 20.026 51.758 4.127 74.612-10.692 15.369-23.088 30.233-36.794 42.753-21.257 19.417-23.513 53.345-4.09 74.596 19.461 21.293 52.421 22.766 73.717 3.473 32.657-29.583 62.132-70.266 82.927-110.943 4.762-9.315 18.085-9.315 22.847 0 20.798 40.681 50.274 81.363 82.928 110.943 21.296 19.293 54.256 17.82 73.717-3.473 19.428-21.258 17.158-55.183-4.103-74.608z" fill="url(#SVGID_5_)"/><path d="m263.955 377.518c1.752-7.915 15.483-15.25 37.787 18.053 35.801 53.457 69.951 100.125 114.821 90.428.325-.337.655-.664.973-1.012 19.429-21.258 17.159-55.183-4.103-74.608-13.593-12.418-25.896-27.142-36.527-42.377-16.171-23.175-13.889-54.274 4.82-75.453 27.082-30.657 43.651-70.818 44.054-114.846.89-96.969-77.807-177.015-174.78-177.699-97.816-.689-177.326 78.397-177.326 176.053 0 44.901 16.813 85.872 44.484 116.969 18.507 20.799 20.026 51.758 4.127 74.612-10.692 15.369-23.088 30.233-36.794 42.753-21.257 19.416-23.513 53.345-4.09 74.596 46.875 13.488 81.99-34.368 118.857-89.416 22.304-33.304 36.035-25.968 37.787-18.053 4.762-9.315 18.084-9.315 22.847 0 .821 1.606 1.678 3.21 2.526 4.815.165-2.271.343-3.94.537-4.815z" fill="url(#SVGID_6_)"/><g><ellipse cx="163.114" cy="260.726" fill="#efc5db" rx="14.936" ry="12.003"/><ellipse cx="338.886" cy="260.726" fill="#efc5db" rx="14.936" ry="12.003"/><ellipse cx="188.721" cy="231.108" fill="#fff" rx="29.618" ry="29.618" transform="matrix(.383 -.924 .924 .383 -97.015 317.023)"/><ellipse cx="313.279" cy="231.108" fill="#fff" rx="29.618" ry="29.618" transform="matrix(.383 -.924 .924 .383 -20.124 432.099)"/><g fill="#3b3b44"><g><ellipse cx="188.721" cy="231.108" rx="17.652" ry="17.652" transform="matrix(.189 -.982 .982 .189 -73.905 372.72)"/><ellipse cx="313.279" cy="231.108" rx="17.652" ry="17.652" transform="matrix(.29 -.957 .957 .29 1.304 463.973)"/></g><path d="m251 261.668c-5.248 0-10.495-1.984-14.776-5.953-2.025-1.878-2.145-5.041-.267-7.066 1.878-2.024 5.042-2.143 7.066-.268 4.696 4.355 11.258 4.355 15.954 0 2.025-1.876 5.188-1.757 7.066.268 1.877 2.025 1.758 5.188-.267 7.066-4.281 3.969-9.528 5.953-14.776 5.953z"/></g></g><path d="m112.75 318.407c-6.652 2.05-11.46 8.058-11.594 15.018-.107 5.563-1.805 11.146-5.139 15.938-10.223 14.694-21.025 27.277-32.108 37.4-8.841 8.076-15.742 17.776-20.47 28.496 7.531 1.767 15.57 1.89 23.619.041 6.418-1.475 12.492-3.064 18.271-4.754.055-.051.106-.105.162-.156 13.706-12.52 26.102-27.384 36.794-42.753 7.103-10.21 10.726-22.036 10.912-33.851.17-10.746-10.175-18.544-20.447-15.379z" fill="#e88792"/><path d="m122.285 367.638c7.103-10.21 10.726-22.036 10.912-33.851.169-10.747-10.175-18.545-20.447-15.38-6.652 2.05-11.46 8.058-11.594 15.018-.107 5.563-1.805 11.146-5.139 15.938-10.223 14.694-21.025 27.277-32.108 37.4-2.387 2.181-4.62 4.489-6.72 6.894 16.054-.98 35.484-6.091 58.866-17.424 2.129-2.842 4.219-5.704 6.23-8.595z" fill="#e05d6f"/><g fill="#ffccd3"><path d="m358.515 89.29c-2.755 0-5.498-1.132-7.473-3.352-2.898-3.257-5.992-6.412-9.193-9.378-4.051-3.754-4.292-10.081-.539-14.132s10.08-4.292 14.132-.54c3.67 3.401 7.217 7.019 10.54 10.753 3.672 4.126 3.304 10.446-.821 14.118-1.907 1.697-4.281 2.531-6.646 2.531z"/><path d="m394.29 168.77c-4.998 0-9.316-3.74-9.918-8.826-1.76-14.874-5.945-29.244-12.441-42.713-2.399-4.975-.311-10.952 4.664-13.351 4.977-2.4 10.953-.311 13.351 4.663 7.46 15.469 12.267 31.972 14.287 49.051.649 5.484-3.272 10.457-8.756 11.105-.398.048-.794.071-1.187.071z"/></g></g></svg>