<svg id="Capa_1" enable-background="new 0 0 512 512" height="512" viewBox="0 0 512 512" width="512" xmlns="http://www.w3.org/2000/svg"><g><path d="m348.904 196.213c-36.538 0-70.27 8.954-97.461 24.077-33.039 17.671-93.015 37.965-107.899-27.297 14.287-1.962 29.464-9.615 43.662-23.812 30.251-30.251 48.182-82.295 27.141-103.335-20.875-20.875-72.258-3.381-102.607 26.439-30.348-29.819-81.731-47.313-102.606-26.438-21.04 21.04-3.109 73.084 27.142 103.335 15.718 15.718 32.636 23.416 48.218 24.246 10.64 160.782 96.787 245.862 264.411 245.862 90.075-.001 163.095-54.415 163.095-121.539 0-67.123-73.02-121.538-163.096-121.538z" fill="#cde9fa"/><path d="m194.857 237.78c-22.643.471-43.381-10.008-51.312-44.787 14.287-1.962 29.464-9.615 43.662-23.812 30.251-30.251 48.182-82.295 27.141-103.335-20.875-20.875-72.258-3.381-102.607 26.439-30.349-29.819-81.732-47.313-102.607-26.438-21.04 21.04-3.109 73.083 27.141 103.335 15.718 15.717 32.636 23.416 48.218 24.246 7.213 108.997 49.141 183.189 127.615 219.683-38.648-46.086-34.243-124.395-17.251-175.331z" fill="#a2ddfd"/><path d="m176.228 312.79c-28.831-40.079-57.582-43.418-75.73-30.459 33.198 103.06 114.994 156.957 248.406 156.957 75.862 0 139.622-38.598 157.857-90.877-158.919 86.404-276.2 39.911-330.533-35.621z" fill="#7ca1dc"/><path d="m316.425 421.152c-24.531 24.531-76.015 45.686-94.721 26.98s2.449-70.19 26.98-94.721 52.221-21.893 70.927-3.186c18.706 18.706 21.345 46.396-3.186 70.927z" fill="#a2ddfd"/><g><g><ellipse cx="360.626" cy="332.348" fill="#fff" rx="32.309" ry="25.729"/></g><g fill="#4e5660"><path d="m379.456 315.08c-4.143 0-7.5-3.358-7.5-7.5v-13.208c0-4.142 3.357-7.5 7.5-7.5s7.5 3.358 7.5 7.5v13.208c0 4.142-3.357 7.5-7.5 7.5z"/><path d="m448.189 322.942c-9.112 0-17.778-3.946-23.775-10.828-2.722-3.122-2.396-7.86.727-10.582 3.122-2.722 7.86-2.397 10.582.726 3.147 3.612 7.691 5.683 12.467 5.683 4.775 0 9.319-2.071 12.467-5.683 2.722-3.122 7.459-3.448 10.582-.726 3.123 2.721 3.448 7.459.727 10.582-5.999 6.882-14.665 10.828-23.777 10.828z"/></g></g><g fill="#5a8bd5"><path d="m341.374 115.575c-4.143 0-7.5-3.358-7.5-7.5 0-10.642-8.657-19.299-19.299-19.299-4.143 0-7.5-3.358-7.5-7.5s3.357-7.5 7.5-7.5c10.832 0 20.509 5.048 26.799 12.915 6.29-7.867 15.967-12.915 26.799-12.915 4.143 0 7.5 3.358 7.5 7.5s-3.357 7.5-7.5 7.5c-10.642 0-19.299 8.657-19.299 19.299 0 4.142-3.357 7.5-7.5 7.5z"/><path d="m341.374 160.46c-4.143 0-7.5-3.358-7.5-7.5v-5.608c0-4.142 3.357-7.5 7.5-7.5s7.5 3.358 7.5 7.5v5.608c0 4.142-3.357 7.5-7.5 7.5z"/><path d="m176.228 312.79c-28.831-40.079-57.582-43.418-75.729-30.459 19.767 61.364 56.766 105.295 111.628 130.8-20.634-24.59-29.001-58.359-29.736-92.257-2.133-2.654-4.194-5.347-6.163-8.084z"/></g></g></svg>