<?xml version="1.0" encoding="UTF-8"?>
<svg version="1.1" viewBox="0 0 678 620" xmlns="http://www.w3.org/2000/svg" xmlns:xlink="http://www.w3.org/1999/xlink">
 <defs>
  <linearGradient id="ad">
   <stop stop-color="#fff" offset="0"/>
   <stop stop-color="#fff" stop-opacity="0" offset="1"/>
  </linearGradient>
  <linearGradient id="ac">
   <stop stop-color="#fff" stop-opacity=".72614" offset="0"/>
   <stop stop-color="#fff" stop-opacity="0" offset="1"/>
  </linearGradient>
  <linearGradient id="bc" x1="1250.3" x2="1259" y1="664.26" y2="597.01" gradientTransform="translate(-673.25,12)" gradientUnits="userSpaceOnUse">
   <stop stop-color="#ff9600" offset="0"/>
   <stop stop-color="#ff0" offset="1"/>
  </linearGradient>
  <linearGradient id="bd" x1="1295.3" x2="1329.3" y1="618.02" y2="621.27" gradientTransform="translate(-674.25,11.875)" gradientUnits="userSpaceOnUse">
   <stop stop-color="#fff" offset="0"/>
   <stop stop-color="#fff" stop-opacity=".48315" offset="1"/>
  </linearGradient>
  <linearGradient id="ae" x1="1187" x2="1298.9" y1="583.59" y2="582.34" gradientTransform="translate(-667,76)" gradientUnits="userSpaceOnUse">
   <stop stop-color="#fff" stop-opacity=".5618" offset="0"/>
   <stop stop-color="#fff" stop-opacity=".27341" offset="1"/>
  </linearGradient>
  <linearGradient id="af" x1="1305.4" x2="1269.7" y1="641.21" y2="628.4" gradientTransform="translate(-676.19 15.375)" gradientUnits="userSpaceOnUse">
   <stop stop-color="#fff" stop-opacity=".79026" offset="0"/>
   <stop stop-color="#fff" stop-opacity=".19101" offset="1"/>
  </linearGradient>
  <linearGradient id="ag" x1="1179.8" x2="1263.7" y1="558.61" y2="569.61" gradientTransform="translate(-667,76)" gradientUnits="userSpaceOnUse">
   <stop stop-color="#ffe300" stop-opacity=".17228" offset="0"/>
   <stop stop-color="#ffa300" stop-opacity=".20599" offset="1"/>
  </linearGradient>
  <linearGradient id="ah" x1="1324.8" x2="1369.2" y1="334.36" y2="348.61" gradientTransform="translate(-715.25,18)" gradientUnits="userSpaceOnUse" xlink:href="#ac"/>
  <linearGradient id="aj" x1="186.76" x2="363.72" y1="614.06" y2="186.77" gradientTransform="translate(-21.556 339.58)" gradientUnits="userSpaceOnUse">
   <stop stop-color="#0f0f0f" offset="0"/>
   <stop stop-color="#484848" offset="1"/>
  </linearGradient>
  <linearGradient id="ak" x1="189.82" x2="494.3" y1="176.11" y2="443.52" gradientTransform="matrix(1.0727 0 0 1.1518 -24.676 277.6)" gradientUnits="userSpaceOnUse">
   <stop stop-color="#fff" stop-opacity=".30833" offset="0"/>
   <stop stop-color="#fff" stop-opacity="0" offset="1"/>
  </linearGradient>
  <linearGradient id="al" x1="211.88" x2="555.88" y1="184.76" y2="207.76" gradientTransform="translate(-24.385 331.1)" gradientUnits="userSpaceOnUse">
   <stop stop-color="#fff" stop-opacity=".0375" offset="0"/>
   <stop stop-color="#fff" stop-opacity=".30712" offset="1"/>
  </linearGradient>
  <radialGradient id="ax" cx="189.55" cy="306.2" r="102.43" gradientTransform="matrix(.69824 -1.2136 .53716 .30907 -118.58 776.57)" gradientUnits="userSpaceOnUse">
   <stop stop-color="#fff" stop-opacity=".22472" offset="0"/>
   <stop stop-color="#fff" stop-opacity="0" offset="1"/>
  </radialGradient>
  <radialGradient id="ay" cx="1147" cy="293.14" r="51.629" gradientTransform="matrix(.67073 .019369 -.013917 .48193 -350.78 509.86)" gradientUnits="userSpaceOnUse">
   <stop stop-color="#f00" offset="0"/>
   <stop stop-color="#800000" offset="1"/>
  </radialGradient>
  <linearGradient id="am" x1="1122.2" x2="1163.5" y1="286.86" y2="286.86" gradientTransform="translate(-732.91 392.26)" gradientUnits="userSpaceOnUse">
   <stop stop-color="#ff1000" offset="0"/>
   <stop stop-color="#800000" offset="1"/>
  </linearGradient>
  <radialGradient id="az" cx="1199.7" cy="241.29" r="62.062" gradientTransform="matrix(1 0 0 .70275 -769.38 470.95)" gradientUnits="userSpaceOnUse">
   <stop stop-color="#ff0" offset="0"/>
   <stop stop-color="#ffa400" offset="1"/>
  </radialGradient>
  <linearGradient id="an" x1="1037.9" x2="1038.3" y1="188.17" y2="196.51" gradientTransform="matrix(1.7111 0 0 1.6176 -1474.1 262.7)" gradientUnits="userSpaceOnUse">
   <stop stop-color="#fff" offset="0"/>
   <stop stop-color="#fff" stop-opacity="0" offset="1"/>
  </linearGradient>
  <linearGradient id="ao" x1="1237.8" x2="1237.9" y1="191.39" y2="201.32" gradientTransform="matrix(.85561 0 0 .93203 -562.23 391.63)" gradientUnits="userSpaceOnUse">
   <stop stop-color="#fff" offset="0"/>
   <stop stop-color="#fff" stop-opacity="0" offset="1"/>
  </linearGradient>
  <linearGradient id="ap" x1="687.3" x2="759.43" y1="375.79" y2="356.35" gradientTransform="translate(-658.66 318.02)" gradientUnits="userSpaceOnUse">
   <stop stop-color="#fff" stop-opacity=".73859" offset="0"/>
   <stop stop-color="#fff" stop-opacity="0" offset="1"/>
  </linearGradient>
  <linearGradient id="aq" x1="848.17" x2="779.59" y1="311.49" y2="352.15" gradientTransform="translate(-748.38 340.45)" gradientUnits="userSpaceOnUse">
   <stop stop-color="#fff" stop-opacity=".51037" offset="0"/>
   <stop stop-color="#fff" stop-opacity="0" offset="1"/>
  </linearGradient>
  <linearGradient id="ar" x1="771.88" x2="802.25" y1="356.3" y2="359.42" gradientTransform="translate(-743.63 338.72)" gradientUnits="userSpaceOnUse" xlink:href="#ac"/>
  <linearGradient id="as" x1="835.42" x2="1016.9" y1="650.16" y2="638.49" gradientTransform="translate(-746 .70711)" gradientUnits="userSpaceOnUse">
   <stop stop-color="#ffe300" offset="0"/>
   <stop stop-color="#ffa300" offset="1"/>
  </linearGradient>
  <linearGradient id="at" x1="835.42" x2="1016.9" y1="650.16" y2="638.49" gradientTransform="matrix(1.0092 0 0 .91003 -755.21 56.912)" gradientUnits="userSpaceOnUse">
   <stop stop-color="#fff" stop-opacity=".29588" offset="0"/>
   <stop stop-color="#fff" stop-opacity=".074906" offset="1"/>
  </linearGradient>
  <linearGradient id="au" x1="835.42" x2="1016.9" y1="650.16" y2="638.49" gradientTransform="matrix(.91594 0 0 .84869 -673.29 95.96)" gradientUnits="userSpaceOnUse">
   <stop stop-color="#fff" stop-opacity=".65169" offset="0"/>
   <stop stop-color="#fff" stop-opacity=".17603" offset="1"/>
  </linearGradient>
  <linearGradient id="av" x1="824.53" x2="1017.7" y1="628.33" y2="628.33" gradientTransform="translate(-746 1.4142)" gradientUnits="userSpaceOnUse">
   <stop stop-color="#fff" stop-opacity=".58052" offset="0"/>
   <stop stop-color="#fff" stop-opacity=".27715" offset="1"/>
  </linearGradient>
  <linearGradient id="aw" x1="852.28" x2="887.33" y1="657.64" y2="644.03" gradientTransform="translate(-750.06 1.3258)" gradientUnits="userSpaceOnUse">
   <stop stop-color="#fff" stop-opacity=".8015" offset="0"/>
   <stop stop-color="#fff" stop-opacity=".06367" offset="1"/>
  </linearGradient>
  <radialGradient id="ba" cx="944.69" cy="589.03" r="18.385" gradientTransform="matrix(.051606 -.64046 1.0985 .088513 248.89 1141.9)" gradientUnits="userSpaceOnUse" xlink:href="#ad"/>
  <radialGradient id="bb" cx="866.1" cy="579.04" r="3.7344" gradientTransform="matrix(3.9494 .1233 -.07387 2.3661 -2511.7 -895.27)" gradientUnits="userSpaceOnUse" xlink:href="#ad"/>
  <linearGradient id="ai" x1="351.77" x2="438.14" y1="647.55" y2="313.78" gradientTransform="translate(-22.747 340.43)" gradientUnits="userSpaceOnUse">
   <stop stop-color="#797979" offset="0"/>
   <stop stop-color="#fffeff" offset="1"/>
  </linearGradient>
 </defs>
 <g transform="translate(0 -432.36)">
  <g transform="translate(-63.385 331.1)">
   <path d="m501.75 660.11c-6.5237 3.0712 53.999 13.066 116.5 8.25 6.9296-2.5961 13.048-5.3397 12.75-9.25 32.829 1.2516 31.037-14.108 30.5-19-9.3029-12.26-12.415-11.947-22.5-15.5-2.7823-5.0688-20.624-8.3041-46.5-10.25z" fill="url(#bc)"/>
   <path d="m505.49 657.81c-6.2493 2.9601 51.727 12.593 111.6 7.9516 6.6381-2.5022 12.499-5.1466 12.214-8.9154 31.448 1.2063 29.731-13.598 29.217-18.313-1.5038-4.5611-2.8131-5.8258-19.928-14.287-2.6652-4.8855-21.381-8.6558-46.169-10.531z" fill="#fff" opacity=".27341"/>
   <path d="m621.06 623.42 34.5 12.938c-9.8815-13.476-16.63-11.036-34.5-12.938z" fill="url(#bd)"/>
   <path d="m520 661.92 5.375-2.1875c37.824-0.96232 85.633 8.901 104.25-6.125-5.9349 20.838-74.769 8.0731-109.62 8.3125z" fill="url(#ae)"/>
   <path d="m593.25 642.05c13.502 4.1658 27.202 3.5266 37.188 15.062-1.6341-20.204-25.186-15.703-37.188-15.062z" fill="url(#af)"/>
   <path d="m589.5 615.36c34.678 39.34-53.926 37.745-76.75 38.5z" fill="url(#ag)"/>
  </g>
  <g transform="translate(-24.385 331.1)">
   <path d="m661.5 367.86c-11.215-16.564-39.917-29.225-60-41.75l9.5 64.75c18.827-5.2076 39.832-5.868 50.5-23z"/>
   <path d="m670.25 373.36c-17.086-18.496-39.474-29.039-60.25-42l0.75 12c19.833 6.268 39.667 19.223 59.5 30z" fill="url(#ah)"/>
  </g>
  <path d="m73.865 714.21 11.626-62.5c0.44634-0.80341-52.351 26.522-62.376 42.25 13.185 19.935 52.019 23.631 50.75 20.25z"/>
  <path d="m332.94 457.24c-165.02 0-269.73 162-269.73 314.79s104.71 238.01 269.73 238.01 273.77-81.186 273.77-233.97-108.75-318.83-273.77-318.83z" color="#000000" fill="url(#aj)" style="block-progression:tb;text-decoration-line:none;text-indent:0;text-transform:none"/>
  <path d="m305.28 509.1c-33.657-0.55235-62.137 24.049-64.957 52.291-14.18 46.079-9.3817 79.717-25.344 108.5-23.985 28.648-41.853 94.088-40.68 120.63-0.16184 75.567 27.468 107.17 51.398 137.06 28.673 22.775 81.769 51.384 128.2 57.047 115.37 14.071 253.81-69.339 248.32-220.37-1.3683-98.458-94.821-289.77-157.64-214.05-43.259 58.996-51.567 19.838-77.547-8.3008-19.496-23.089-41.554-32.477-61.748-32.809z" color="#000000" fill="url(#ai)"/>
  <path d="m569.62 630.46c17.771 68.993-87.661 173-218 173s-254-69.755-254-141c4.39-99.817 110.01-204.39 230-201 117.82-2.0874 222.83 94.56 242 169z" color="#000000" fill="url(#ak)"/>
  <path d="m527.99 559.08c-50.259-48.985-61.964-57.317-98-74.5-44.338-21.656-97.453-24.383-101-23.5-72.014-5.4056-132.63 38.31-153 57l6 11.25c40.443-32.72 58.233-44.941 124-52.25 29.515-0.92686 59.515-0.73731 115.5 19.75 38.073 17.896 73.297 38.143 106.5 62.25z" fill="url(#al)"/>
  <path d="m163.87 527.71c-1.3333 0-17.001 18.782-18.25 19.25-10.338 10.117-36.436 47.547-47.938 74.5-19.53 30.682-39.143 130.3-33.001 136.03-0.66667 0.33333 65.889 25.387 65.453 25.992-3.3053 4.0239 0.80312-71.413 34.985-150.02 27.475-48.728 50.049-70.465 84.092-96 10.032-14.062 19.5-19.997 26.158-24.5z" fill="url(#ax)"/>
  <path d="m466.12 639.96c-21.333 0-68-1-68-1l-35.258 7.0821 21.758 26.918c7.9933 5.552 12.494 10.226 29.985 15.784 14.314-7.036 31.461-22.71 51.515-48.784z" fill="url(#ay)"/>
  <path d="m430.59 679.37c-4.8361 8.1612-18.755 10.944-18.25 11 0.5411-0.81163-20.662-12.184-23.75-16.25 6.467-5.7192 10.836-5.4684 20-6.25 12.053 0.37327 19.378 5.424 22 11.5z" color="#000000" fill="url(#am)"/>
  <path d="m404.8 612.04c-11.27 6.0156-15.615 10.444-25.969 18.031-15.213 11.149-19.518 10.519-29.469 14.344-2.1367 3.0271 18.478 21.553 26.969 27.844 0.044 0.0322 0.081 0.0616 0.125 0.0937 12.501 10.079 21.973 15.551 28.469 18.531 3.2592 1.4952 5.7746 2.3713 7.5313 2.875 5.9257 0.8783 10.021-3.1258 19.5-10.125 14.844-11.311 34.183-25.78 41.375-46.438-4.1799-2.056-10.022-6.9107-13.125-8.9062-12.882-7.7211-16.78-10.372-26.531-17.562-9.4018-5.4568-16.115-5.4986-28.875 1.3126zm39.844 36.562s17.142-5.2806 13.906-1.0625c-16.894 11.644-26.074 31.455-44.312 39.969-12.147-2.2513-49.624-30.885-41.375-38.813 39.342 5.6817 71.781-0.0937 71.781-0.0937z" color="#000000" fill="url(#az)" style="block-progression:tb;text-decoration-line:none;text-indent:0;text-transform:none"/>
  <path d="m320.12 583.59c0 10.287-6.258 17.876-16.753 17.876s-17.503-10.339-17.503-20.626 7.008-16.626 17.503-16.626c9.8552 1.0663 15.444 11.272 16.753 19.376z" color="#000000"/>
  <ellipse cx="302.24" cy="575.08" rx="9.625" ry="6.875" color="#000000" fill="url(#an)"/>
  <path d="m511.64 581.43c0 8.9704-4.752 14.492-12.772 14.492s-15.522-5.5219-15.522-14.492 5.752-16.242 13.772-16.242c7.735 1.4273 14.144 9.1641 14.522 16.242z" color="#000000"/>
  <ellipse cx="496.37" cy="574.76" rx="7.2727" ry="5.4757" color="#000000" fill="url(#ao)"/>
  <path d="m98.298 647.72c-58.719 28.441-73.531 40.852-73.186 47.73 13.929 10.993 49.975 3.6916 75.66-4.5962z" fill="url(#ap)"/>
  <path d="m96.254 648.23c-33.085 15.29-53.634 27.96-66.822 38.537l6.0104 2.8284c17.052-11.408 37.16-21.943 60.811-31.466z" fill="url(#aq)"/>
  <path d="m28.24 694.58v2.75c18.15 5.2854 25.81 2.5913 36.125 1.75z" fill="url(#ar)"/>
  <g transform="translate(-24.385 331.1)">
   <path d="m231.22 609.36c-36.887-1.4147-72.389-4.2146-147.79 32.88-3.5645 3.4399-4.4477 7.6385-4.2426 12.021 2.8182 11.152 16.122 6.5761 25.809 7.4246 2.738 23.736 51.037 17.031 71.418 13.789 7.8898 1.9427 27.023 11.284 34.295 6.7175 33.234-6.3231 44.838-7.7305 60.811-34.648 6.8613-26.03-19.216-32.762-40.305-38.184z" fill="url(#as)"/>
   <path d="m231.02 610.8c-37.227-1.2874-71.288-2.7747-147.38 30.983-3.5973 3.1304-4.1352 5.8906-3.9282 9.8786 2.8442 10.149 14.149 5.9844 23.926 6.7566 2.7632 21.6 51.508 15.499 72.076 12.548 7.9625 1.7679 27.272 10.269 34.611 6.1131 33.54-5.7542 45.252-7.035 61.372-31.531 6.9246-23.688-19.393-29.814-40.677-34.748z" fill="url(#at)"/>
   <path d="m221.79 610.04c-33.294-1.6926-61.611-2.9666-131.12 28.966-3.2648 2.9194-3.7203 5.4221-3.5325 9.1413 2.5813 9.4648 11.231 4.874 20.104 5.5941 2.5078 20.144 48.515 14.807 67.182 12.056 7.2266 1.6488 22.276 9.5769 28.937 5.7011 30.44-5.3664 40.716-3.7324 55.346-26.577 6.5305-23.075-16.139-36.125-36.917-34.881z" fill="url(#au)"/>
   <path d="m79.196 650.73c-3.7139-12.828 56.033-30.012 94.752-38.184 56.682-10.745 86.351 3.2041 97.227 19.799-16.234-8.8435-31.169-18.861-56.922-19.092-6.8506-0.35729-24.984 0.78159-37.477 2.8284-34.579 7.8076-65.115 15.471-97.581 34.648z" fill="url(#av)"/>
   <path d="m137.44 639.5c-17.451 4.7329-30.077 4.5184-31.864 19.666z" fill="url(#aw)"/>
   <ellipse transform="translate(-743.88 76.368)" cx="944.69" cy="589.03" rx="22.981" ry="13.258" color="#000000" fill="url(#ba)"/>
   <path transform="translate(-743.88 76.368)" d="m879.2 582.14a12.772 9.5459 0 0 1 -12.77 9.5459 12.772 9.5459 0 0 1 -12.774 -9.5424 12.772 9.5459 0 0 1 12.765 -9.5494 12.772 9.5459 0 0 1 12.779 9.539" color="#000000" fill="url(#bb)"/>
  </g>
 </g>
</svg>
