<svg id="Layer_1" enable-background="new 0 0 511.514 511.514" height="512" viewBox="0 0 511.514 511.514" width="512" xmlns="http://www.w3.org/2000/svg"><g><path d="m85.635 263.127c-47.295 0-85.635-38.454-85.635-85.827v-27.306c0-7.017 5.688-12.705 12.705-12.705h48.937c35.312 0 63.937 28.673 63.937 64.043v28.191 69.837 25.51c0 35.37-28.626 64.043-63.937 64.043h-48.937c-7.017 0-12.705-5.688-12.705-12.704v-27.306c0-47.373 38.34-85.776 85.635-85.776" fill="#00c7ce"/><path d="m83.741 263.175c-46.417 1.012-83.741 38.991-83.741 85.728v30.175c0 5.432 4.404 9.836 9.836 9.836h51.806c35.312 0 63.937-28.673 63.937-64.043v-61.696z" fill="#00767a"/><path d="m333.735 149.155c-3.598-76.891-91.063-58.381-144.793-59.499-5.097-.106-9.173 4.181-8.825 9.267 1.861 27.212 11.848 52.861 28.035 73.168z" fill="#00c7ce"/><path d="m208.639 357.509c-23.288 15.176-27.662 36.796-28.263 56.122-.151 4.86 3.772 8.863 8.634 8.878 42.749.134 92.814 8.235 95.869-43.207z" fill="#00767a"/><path d="m82.154 269.374c-2.659-3.464-2.562-8.298.231-11.655 20.349-24.46 106.839-118.939 228.869-119.107 140.179-.194 194.746 99.565 200.014 124.236s-75.794 127.351-196.503 127.517c-131.032.181-213.357-95.91-232.611-120.991z" fill="#ccf7ff"/><path d="m511.268 262.848c-.003-.013-.007-.028-.01-.041l-431.027.595c-.065 2.085.565 4.189 1.903 5.945 66.325 85.975 182.849 143.465 291.12 112.763 54.177-15.789 120.222-59.464 138-113.767.335-2.107.343-3.953.014-5.495z" fill="#9ef"/><g><g><path d="m259.452 329.048c-5.815.008-11.386-3.297-14.001-8.925-15.975-34.376-18.058-72.334-6.025-109.772 2.606-8.115 11.284-12.581 19.39-9.962 8.102 2.612 12.554 11.308 9.946 19.422-9.611 29.903-8.01 60.086 4.63 87.284 3.592 7.729.248 16.91-7.467 20.507-2.098.977-4.303 1.443-6.473 1.446z" fill="#00c7ce"/></g></g><path d="m366.498 144.533c-65.379 71.536-65.943 168.136-.531 239.508 91.624-22.817 149.779-99.9 145.301-120.874-4.51-21.124-45.175-97.291-144.77-118.634z" fill="#00c7ce"/><path d="m511.259 263.126-193.945.268c-.362 42.439 15.668 84.655 48.654 120.647 92.662-22.832 149.779-99.9 145.301-120.874-.004-.013-.008-.028-.01-.041z" fill="#00767a"/><path d="m245.449 320.122c2.615 5.628 8.187 8.933 14.001 8.925 2.17-.003 4.374-.468 6.472-1.446 7.715-3.597 11.059-12.778 7.467-20.507-6.509-14.005-10.082-28.803-10.713-43.945l-30.88.043c.646 19.574 5.206 38.753 13.653 56.93z" fill="#00767a"/><ellipse cx="416.766" cy="224.927" fill="#004244" rx="14.376" ry="14.4"/></g></svg>