<svg id="Layer_3" enable-background="new 0 0 64 64" height="512" viewBox="0 0 64 64" width="512" xmlns="http://www.w3.org/2000/svg"><g><path d="m15 30h34v18h-34z" fill="#4472b0"/><circle cx="24" cy="39" fill="#ebf7fe" r="5"/><circle cx="40" cy="39" fill="#ebf7fe" r="5"/><path d="m32 2c-16.569 0-30 13.431-30 30s13.431 30 30 30 30-13.431 30-30-13.431-30-30-30zm-26 30c0-14.359 11.641-26 26-26 6.416 0 12.285 2.329 16.819 6.181l-36.638 36.638c-3.852-4.534-6.181-10.403-6.181-16.819zm26 26c-6.416 0-12.285-2.329-16.819-6.181l36.639-36.639c3.851 4.535 6.18 10.404 6.18 16.82 0 14.359-11.641 26-26 26z" fill="#e47c6f"/><g><path d="m40 45c3.309 0 6-2.691 6-6s-2.691-6-6-6-6 2.691-6 6 2.691 6 6 6zm-3.494-4.092.494-.494 1.586 1.586-.494.494c-.67-.368-1.218-.916-1.586-1.586zm1.908-1.908 1.586-1.586 1.586 1.586-1.586 1.586zm3.494 3.494-.494-.494 1.586-1.586.494.494c-.368.67-.916 1.218-1.586 1.586zm1.586-5.402-.494.494-1.586-1.586.494-.494c.67.368 1.218.916 1.586 1.586zm-5.402-1.586.494.494-1.586 1.586-.494-.494c.368-.67.916-1.218 1.586-1.586z"/><path d="m22.628 18.071c-.379.153-.628.52-.628.929v3.184c-.314-.112-.648-.184-1-.184-1.654 0-3 1.346-3 3s1.346 3 3 3 3-1.346 3-3v-5.323l4.372-1.748-.743-1.857zm-1.628 7.929c-.551 0-1-.448-1-1s.449-1 1-1 1 .448 1 1-.449 1-1 1z"/><path d="m32 1c-17.093 0-31 13.906-31 31s13.907 31 31 31 31-13.906 31-31-13.907-31-31-31zm0 60c-15.991 0-29-13.01-29-29s13.009-29 29-29 29 13.01 29 29-13.009 29-29 29z"/><path d="m49.818 12.14c-.011-.278-.139-.54-.352-.721-4.871-4.14-11.074-6.419-17.466-6.419-14.888 0-27 12.112-27 27 0 6.392 2.279 12.595 6.418 17.467.181.213.442.341.722.352.014.001.027.001.041.001.265 0 .519-.105.707-.293l36.639-36.639c.197-.198.303-.469.291-.748zm-29.818 26.86c0-2.206 1.794-4 4-4 .181 0 .355.031.531.054l-4.492 4.492c-.024-.181-.039-.363-.039-.546zm4-6c-3.309 0-6 2.691-6 6 0 .746.141 1.486.409 2.177l-2.409 2.408v-12.585h12.585l-2.414 2.414c-.692-.27-1.419-.414-2.171-.414zm17-18.693-6 2.25v-1.863l6-2.25zm2 2.278v-5.585c0-.328-.161-.635-.43-.822-.27-.186-.614-.23-.921-.114l-8 3c-.39.146-.649.519-.649.936v6.184c-.314-.112-.648-.184-1-.184-1.654 0-3 1.346-3 3s1.346 3 3 3 3-1.346 3-3v-4.307l6-2.25v1.739c-.318-.113-.653-.182-1-.182-1.654 0-3 1.346-3 3 0 .454.11.888.3 1.286l-6.715 6.714h-15.585c-.552 0-1 .447-1 1v15.585l-1.743 1.743c-3.397-4.372-5.257-9.773-5.257-15.328 0-13.785 11.215-25 25-25 5.555 0 10.957 1.859 15.329 5.257zm-10 6.415c0 .552-.449 1-1 1s-1-.448-1-1 .449-1 1-1 1 .448 1 1z"/><path d="m52.582 14.533c-.181-.213-.442-.341-.722-.352-.275-.019-.55.095-.748.292l-36.638 36.639c-.198.197-.304.469-.292.748.011.278.139.54.352.721 4.871 4.14 11.074 6.419 17.466 6.419 14.888 0 27-12.112 27-27 0-6.392-2.279-12.595-6.418-17.467zm-26.646 27.945 1.542-1.542c-.362.648-.894 1.18-1.542 1.542zm-1.936 2.522c3.309 0 6-2.691 6-6 0-.186-.011-.372-.028-.557l7.443-7.443h10.585v16h-26.585l2.027-2.027c.185.017.372.027.558.027zm8 12c-5.555 0-10.957-1.859-15.329-5.257l2.744-2.743h29.585c.552 0 1-.447 1-1v-18c0-.553-.448-1-1-1h-9.585l12.328-12.328c3.397 4.372 5.257 9.773 5.257 15.328 0 13.785-11.215 25-25 25z"/></g></g></svg>