<?xml version="1.0" encoding="iso-8859-1"?>
<!-- Generator: Adobe Illustrator 19.0.0, SVG Export Plug-In . SVG Version: 6.00 Build 0)  -->
<svg version="1.1" id="Capa_1" xmlns="http://www.w3.org/2000/svg" xmlns:xlink="http://www.w3.org/1999/xlink" x="0px" y="0px"
	 viewBox="0 0 512.006 512.006" style="enable-background:new 0 0 512.006 512.006;" xml:space="preserve">
<path style="fill:#8C421C;" d="M256.008,150.085L256.008,150.085c-24.37,0-44.133-19.763-44.133-44.133l0,0
	c0-34.22,11.995-67.355,33.894-93.649l10.239-12.269l10.239,12.269c21.899,26.294,33.894,59.429,33.894,93.649l0,0
	C300.14,130.322,280.387,150.085,256.008,150.085z"/>
<path style="fill:#E8A864;" d="M441.365,92.712L441.365,92.712c0-17.062-13.831-30.893-30.893-30.893l0,0
	c-46.313,0-83.852,37.539-83.852,83.852l0,0c0,17.062,13.831,30.893,30.893,30.893l0,0c17.062,0,30.893-13.831,30.893-30.893l0,0
	c0-12.189,9.877-22.066,22.066-22.066l0,0C427.534,123.605,441.365,109.774,441.365,92.712z"/>
<path style="fill:#E5E5E5;" d="M95.718,133.844l31.158-80.851c-19.003,2.145-36.657,10.892-49.87,24.714
	c-27.627,27.539-32.835,66.64-12.534,87.383s59.844,15.093,87.383-12.534c13.822-13.213,22.569-30.866,24.714-49.87L95.718,133.844z
	"/>
<path style="fill:#77A226;" d="M157.945,109.924l7.679-30.981c1.668-6.62-2.339-13.337-8.959-15.005
	c-1.986-0.503-4.06-0.503-6.046,0l-30.981,7.679l-23.92,62.227L157.945,109.924z"/>
<path style="fill:#8C421C;" d="M361.926,233.584L361.926,233.584c17.256,17.212,17.291,45.156,0.079,62.412
	c-0.026,0.026-0.053,0.053-0.079,0.079l0,0c-24.158,24.149-56.013,39.075-90.031,42.191l-15.888,1.5l1.412-15.976
	c3.248-34.141,18.368-66.058,42.72-90.207l0,0C317.299,216.76,344.767,216.76,361.926,233.584z"/>
<path style="fill:#E8A864;" d="M123.61,278.069L123.61,278.069c0,17.062,13.831,30.893,30.893,30.893l0,0
	c46.313,0,83.852-37.539,83.852-83.852l0,0c0-17.062-13.831-30.893-30.893-30.893l0,0c-17.062,0-30.893,13.831-30.893,30.893l0,0
	c0,12.189-9.877,22.066-22.066,22.066l0,0C137.441,247.176,123.61,261.008,123.61,278.069z"/>
<path style="fill:#8C421C;" d="M70.651,370.748L70.651,370.748c17.229-17.229,45.174-17.229,62.403,0l0,0
	c24.105,24.176,39.004,56.031,42.103,90.031l1.412,15.888l-15.888-1.412c-34.026-3.151-65.881-18.103-90.031-42.279l0,0
	C53.536,415.763,53.536,387.959,70.651,370.748z"/>
<g>
	<path style="fill:#E8A864;" d="M361.926,419.294L361.926,419.294c0,17.062,13.831,30.893,30.893,30.893l0,0
		c46.313,0,83.852-37.539,83.852-83.852l0,0l0,0c0-17.062-13.831-30.893-30.893-30.893l0,0c-17.062,0-30.893,13.831-30.893,30.893
		l0,0c0,12.189-9.877,22.066-22.066,22.066l0,0C375.757,388.401,361.926,402.232,361.926,419.294z"/>
	<path style="fill:#E8A864;" d="M68.268,211.87L68.268,211.87c-11.995-12.066-31.502-12.119-43.568-0.124
		c-0.044,0.044-0.088,0.088-0.124,0.124l0,0c-32.738,32.693-32.773,85.723-0.079,118.461c0.026,0.026,0.053,0.053,0.079,0.079l0,0
		c11.872,12.189,31.369,12.445,43.559,0.574c0.194-0.185,0.38-0.38,0.574-0.574l0,0c12.189-11.872,12.445-31.369,0.574-43.559
		c-0.185-0.194-0.38-0.38-0.574-0.574l0,0c-8.544-8.659-8.544-22.587,0-31.246l0,0C80.404,242.949,80.201,223.707,68.268,211.87z"/>
</g>
<path style="fill:#E5E5E5;" d="M459.018,194.217l35.306,79.439c11.916-15.032,18.165-33.779,17.653-52.959
	c0-39.013-23.743-70.612-52.959-70.612s-52.959,31.599-52.959,70.612c-0.512,19.18,5.737,37.928,17.653,52.959L459.018,194.217z"/>
<path style="fill:#77A226;" d="M432.009,255.12l16.417,27.362c3.513,5.852,11.104,7.741,16.956,4.228
	c1.73-1.042,3.186-2.489,4.228-4.228l16.417-27.362l-27.009-60.903L432.009,255.12z"/>
<path style="fill:#E5E5E5;" d="M256.008,431.121l80.851,31.158c-2.145-19.003-10.892-36.657-24.714-49.87
	c-27.539-27.627-66.64-33.188-87.383-12.534c-20.742,20.654-15.093,59.844,12.534,87.383c13.099,13.734,30.584,22.472,49.428,24.714
	L256.008,431.121z"/>
<path style="fill:#77A226;" d="M279.486,493.348l30.981,7.679c6.62,1.668,13.337-2.339,15.005-8.959c0.503-1.986,0.503-4.06,0-6.046
	l-7.679-30.981l-61.786-23.92L279.486,493.348z"/>
<g>
</g>
<g>
</g>
<g>
</g>
<g>
</g>
<g>
</g>
<g>
</g>
<g>
</g>
<g>
</g>
<g>
</g>
<g>
</g>
<g>
</g>
<g>
</g>
<g>
</g>
<g>
</g>
<g>
</g>
</svg>
