<svg height="512pt" viewBox="-100 0 512 512.00012" width="512pt" xmlns="http://www.w3.org/2000/svg"><path d="m131.679688 476.691406 7.5 17.652344 1.855468 4.328125c1.960938 7.855469 9.027344 13.355469 17.125 13.328125h79.449219c0-12.625-16.066406-21.273438-32.925781-26.746094h-.089844c-12.257812-3.957031-24.84375-6.820312-37.605469-8.5625zm0 0" fill="#f29c1f"/><path d="m139.179688 494.34375c-53.078126 1.765625-103.792969 1.34375-134.980469.777344-2.09375-.101563-3.824219-1.660156-4.1484378-3.730469-.3203122-2.074219.8593748-4.082031 2.8242188-4.8125 67.089844-25.265625 82.617188-93.804687 83.164062-168.785156.617188-68.765625-11.300781-142.917969-7.328124-194.207031 8.828124-114.757813 44.140624-123.585938 88.277343-123.585938 26.683594 1.101562 50.351563 17.453125 60.820313 42.019531.246094.667969.636718 1.269531 1.148437 1.765625.683594.472656 1.472657.777344 2.296875.882813 13.859375 2.734375 27.804688 5.5625 41.664063 8.296875 44.140625 8.828125 35.3125 26.484375 35.3125 26.484375-10.769531-1.179688-21.539063-1.882813-32.308594-2.121094-19.6875-.441406-46.257813-4.855469-58.261719 15.097656-10.242187 17.125-1.589844 33.191407 12.445313 44.84375 30.539062 25.230469 53.15625 58.730469 65.148437 96.484375 9.15625 27.199219 14.910156 55.425782 17.125 84.039063 1.820313 22.878906-.117187 45.898437-5.738281 68.148437-10.148437 39.800782-37.910156 72.792969-75.386719 89.601563-8.601562 3.902343-17.484375 7.148437-26.570312 9.710937h-.089844zm0 0" fill="#2c2f38"/><path d="m306.640625 385.941406c-10.148437 39.800782-37.910156 72.792969-75.386719 89.601563-8.601562 3.902343-17.484375 7.148437-26.570312 9.710937h-.089844c-12.257812-3.957031-24.84375-6.820312-37.605469-8.5625 0 0-35.308593-52.96875 8.828125-70.621094 31.601563-12.625 31.515625-61.617187 28.953125-88.277343-.609375-5.617188-1.582031-11.191407-2.914062-16.683594 3.53125-64.351563-26.039063-133.386719-26.039063-133.386719-23.570312-70.707031 32.21875-78.210937 44.402344-78.917968-.953125 1.132812-1.808594 2.34375-2.558594 3.621093-10.242187 17.125-1.589844 33.191407 12.445313 44.84375 30.539062 25.230469 53.15625 58.730469 65.148437 96.484375 9.15625 27.199219 14.910156 55.425782 17.125 84.039063 1.820313 22.878906-.117187 45.898437-5.738281 68.148437zm0 0" fill="#d1d4d1"/><path d="m168.921875 384.28125c-1.511719-.003906-3.015625-.207031-4.476563-.597656-31.601562-8.414063-39.609374-128.882813-41.585937-180.304688-.191406-4.875 3.609375-8.980468 8.484375-9.171875 4.875-.191406 8.980469 3.609375 9.171875 8.484375 3.203125 83.171875 16.515625 159.777344 28.492187 163.925782 0-.070313 2.949219-1.015626 8.167969-9.363282 41.152344-65.847656-8.941406-184.859375-9.453125-186.050781-1.839844-4.464844.246094-9.574219 4.683594-11.476563 4.433594-1.902343 9.574219.109376 11.539062 4.519532 2.234376 5.21875 54.253907 128.679687 8.203126 202.363281-7.363282 11.75-15.148438 17.671875-23.226563 17.671875zm0 0" fill="#5e5f62"/><path d="m308.230469 79.449219c-10.769531-1.179688-21.539063-1.882813-32.308594-2.121094-13.683594-.261719-30.808594-2.558594-43.960937 2.914063 1.101562-11.960938.570312-24.019532-1.589844-35.839844.28125.128906.578125.21875.882812.265625 13.859375 2.734375 27.804688 5.5625 41.664063 8.296875 44.140625 8.828125 35.3125 26.484375 35.3125 26.484375zm0 0" fill="#f29c1f"/><path d="m308.230469 79.449219c-10.769531-1.179688-21.539063-1.882813-32.308594-2.121094-13.683594-.261719-30.808594-2.558594-43.960937 2.914063 1.101562-11.960938.570312-24.019532-1.589844-35.839844.28125.128906.578125.21875.882812.265625 13.859375 2.734375 27.804688 5.5625 41.664063 8.296875 44.140625 8.828125 35.3125 26.484375 35.3125 26.484375zm0 0" fill="#f29c1f"/><path d="m79.417969 115.289062c1.410156-18.246093 4.453125-36.324218 9.09375-54.027343 6.53125-3.617188 43.960937-22.066407 51.992187 18.1875 8.742188 43.871093-26.039062 61.527343-61.085937 35.839843zm0 0" fill="#f0c419"/><path d="m184.644531 44.136719c0 9.75-7.90625 17.65625-17.65625 17.65625s-17.65625-7.90625-17.65625-17.65625 7.90625-17.652344 17.65625-17.652344 17.65625 7.902344 17.65625 17.652344zm0 0" fill="#fff"/><path d="m175.816406 44.136719c0 4.875-3.953125 8.828125-8.828125 8.828125s-8.828125-3.953125-8.828125-8.828125 3.953125-8.828125 8.828125-8.828125 8.828125 3.953125 8.828125 8.828125zm0 0" fill="#2c2f38"/><path d="m166.988281 35.308594c-.019531 4.148437-2.921875 7.722656-6.976562 8.59375-4.050781.867187-8.164063-1.199219-9.882813-4.972656 1.753906-5.550782 6.101563-9.898438 11.652344-11.652344 3.164062 1.421875 5.199219 4.566406 5.207031 8.03125zm0 0" fill="#fff"/></svg>