<?xml version="1.0" encoding="iso-8859-1"?>
<!-- Generator: Adobe Illustrator 19.0.0, SVG Export Plug-In . SVG Version: 6.00 Build 0)  -->
<svg version="1.1" id="Capa_1" xmlns="http://www.w3.org/2000/svg" xmlns:xlink="http://www.w3.org/1999/xlink" x="0px" y="0px"
	 viewBox="0 0 512 512" style="enable-background:new 0 0 512 512;" xml:space="preserve">
<path style="fill:#333940;" d="M134.865,413.516h-5.979c-36.191,0-62.24-34.757-52.081-69.494l58.059-198.521h32.524v268.015
	H134.865z"/>
<path style="fill:#23272B;" d="M377.135,413.516h5.979c36.191,0,62.24-34.757,52.081-69.494l-58.059-198.521h-32.524v268.015
	H377.135z"/>
<path style="fill:#333940;" d="M134.865,512l6.001-250.333l-6.001-140.532C134.865,54.234,189.099,0,256,0l0,0
	c66.901,0,121.135,54.234,121.135,121.135L370.134,256l7.001,256"/>
<path style="fill:#23272B;" d="M256,512c0,0,0-449.817,0-512l0,0c66.901,0,121.135,54.234,121.135,121.135L369.134,253l8.001,259"/>
<path style="fill:#F2F6FC;" d="M256,145.501c0-33.45,27.117-60.567,60.567-60.567l0,0c33.45,0,60.567,27.117,60.567,60.567v365.796
	H134.865V145.501c0-33.45,27.117-60.567,60.567-60.567l0,0C228.883,84.933,256,112.05,256,145.501"/>
<path style="fill:#E9EDF5;" d="M256,145.501c0-33.45,27.117-60.567,60.567-60.567l0,0c33.45,0,60.567,27.117,60.567,60.567v365.796
	H256C256,511.297,256,223.387,256,145.501"/>
<path style="fill:#FFDA45;" d="M279.636,176.896L256,193.779l-23.636-16.883v-13.057c0-13.054,10.582-23.636,23.636-23.636l0,0
	c13.054,0,23.636,10.582,23.636,23.636V176.896z"/>
<path style="fill:#F1CA3F;" d="M279.636,176.896L256,193.779c0,0,0-42.495,0-53.576l0,0c13.054,0,23.636,10.582,23.636,23.636
	V176.896z"/>
<path style="fill:#FFDA45;" d="M203.461,458.758h-16.056c-29.017,0-52.539,23.523-52.539,52.539l0,0H256l0,0
	C256,482.28,232.477,458.758,203.461,458.758z"/>
<path style="fill:#F1CA3F;" d="M324.595,458.758h-16.056c-29.017,0-52.539,23.523-52.539,52.539l0,0h121.135l0,0
	C377.135,482.28,353.612,458.758,324.595,458.758z"/>
<rect x="181.37" y="121.28" style="fill:#333940;" width="30" height="30"/>
<rect x="302.5" y="121.28" style="fill:#23272B;" width="30" height="30"/>
<g>
</g>
<g>
</g>
<g>
</g>
<g>
</g>
<g>
</g>
<g>
</g>
<g>
</g>
<g>
</g>
<g>
</g>
<g>
</g>
<g>
</g>
<g>
</g>
<g>
</g>
<g>
</g>
<g>
</g>
</svg>
