<?xml version="1.0" encoding="iso-8859-1"?>
<!-- Generator: Adobe Illustrator 19.0.0, SVG Export Plug-In . SVG Version: 6.00 Build 0)  -->
<svg version="1.1" id="Capa_1" xmlns="http://www.w3.org/2000/svg" xmlns:xlink="http://www.w3.org/1999/xlink" x="0px" y="0px"
	 viewBox="0 0 512 512" style="enable-background:new 0 0 512 512;" xml:space="preserve">
<path style="fill:#3E3D42;" d="M377.716,175.917c0,0,140.641,51.975,90.823,238.452c-3.437,12.864-18.419,18.62-29.516,11.261
	c-20.065-13.306-46.754-31.099-46.754-31.099L377.716,175.917z"/>
<path style="fill:#2D2D30;" d="M134.284,175.917c0,0-140.641,51.975-90.823,238.452c3.437,12.864,18.419,18.62,29.516,11.261
	c20.065-13.306,46.754-31.099,46.754-31.099L134.284,175.917z"/>
<path style="fill:#1D1D1F;" d="M75.687,423.831c19.673-13.054,44.044-29.301,44.044-29.301l12.157-182.62
	C105.071,234.198,27.259,311.396,75.687,423.831z"/>
<path style="fill:#2D2D30;" d="M436.313,423.831c-19.673-13.054-44.044-29.301-44.044-29.301l-12.157-182.62
	C406.929,234.198,484.741,311.396,436.313,423.831z"/>
<path style="fill:#57565C;" d="M391.501,180.877v-45.376C391.501,60.665,330.835,0,256,0l0,0
	c-74.835,0-135.501,60.665-135.501,135.501v45.374c0,21.166-5.744,41.913-16.495,60.146c-15.452,26.207-24.321,56.757-24.321,89.384
	c-0.001,97.287,80.34,177.021,177.625,176.314c96.775-0.704,175.008-79.371,175.008-176.312c0-32.626-8.869-63.176-24.32-89.383
	C397.246,222.79,391.501,202.043,391.501,180.877z"/>
<path style="fill:#3E3D42;" d="M187.93,340.3c0-32.626,8.869-63.176,24.321-89.384c3.48-5.902,7.07-15.399,9.792-23.43
	c2.843-8.389,8.674-15.384,16.238-19.992c8.667-5.281,19.366-15.019,21.61-31.577l-31.145-22.825
	c-1.984-70.086,38.823-118.35,92.663-136.279C302.015,6.103,279.722,0,256,0l0,0c-74.835,0-135.501,60.665-135.501,135.501v45.374
	c0,21.166-5.744,41.913-16.495,60.146c-15.452,26.207-24.321,56.757-24.321,89.383c-0.001,97.287,80.34,177.021,177.625,176.314
	c12.999-0.095,25.66-1.608,37.845-4.371C232.365,475.276,187.929,412.647,187.93,340.3z"/>
<circle style="fill:#E9F6FF;" cx="256" cy="347.954" r="120.717"/>
<g>
	<path style="fill:#CAE7FC;" d="M187.93,340.3c0-32.626,8.869-63.176,24.321-89.384c2.759-4.68,5.586-11.619,7.996-18.297
		c-49.217,15.238-84.969,61.111-84.969,115.336c0,62.334,47.246,113.628,107.88,120.039C209.226,435.799,187.93,390.38,187.93,340.3
		z"/>
	<path style="fill:#CAE7FC;" d="M274.591,436.177c-1.236-4.084,1.071-8.397,5.155-9.634c18.141-5.494,33.968-17.257,44.565-33.12
		c2.369-3.548,7.168-4.504,10.716-2.134c3.549,2.37,4.504,7.168,2.134,10.716c-12.579,18.833-31.575,32.182-52.936,39.328
		C278.988,443.084,275.601,439.514,274.591,436.177z"/>
</g>
<path style="fill:#FFB864;" d="M181.999,512h-63.432c-16.337,0-29.702-13.367-29.702-29.702l0,0
	c0-16.337,13.367-29.702,29.702-29.702h63.432c16.337,0,29.702,13.367,29.702,29.702l0,0C211.701,498.633,198.335,512,181.999,512z"
	/>
<path style="fill:#F4A651;" d="M139.127,482.298c0-16.337,13.367-29.702,29.702-29.702h-50.264
	c-16.337,0-29.702,13.367-29.702,29.702S102.229,512,118.566,512h50.264C152.493,512,139.127,498.633,139.127,482.298z"/>
<path style="fill:#FFB864;" d="M393.441,512h-63.432c-16.337,0-29.702-13.367-29.702-29.702l0,0
	c0-16.337,13.367-29.702,29.702-29.702h63.432c16.337,0,29.702,13.367,29.702,29.702l0,0C423.144,498.633,409.777,512,393.441,512z"
	/>
<path style="fill:#F4A651;" d="M350.57,482.297c0-16.337,13.367-29.702,29.702-29.702h-50.264
	c-16.337,0-29.702,13.367-29.702,29.702S313.672,512,330.008,512h50.264C363.935,512,350.57,498.633,350.57,482.297z"/>
<ellipse style="fill:#EF943A;" cx="256.124" cy="175.914" rx="29.362" ry="22.829"/>
<path style="fill:#E28027;" d="M256.124,153.092c-16.216,0-29.362,10.218-29.362,22.825c0,10.895,9.825,20.002,22.961,22.274
	c-3.191-12.33,6.284-19.831,6.284-19.831L256.124,153.092z"/>
<path style="fill:#FFB864;" d="M294.248,178.359c9.359,0,13.142-11.955,5.558-17.438c-9.846-7.118-25.8-11.744-43.805-11.744
	s-33.958,4.626-43.804,11.744c-7.585,5.483-3.801,17.438,5.558,17.438H294.248z"/>
<path style="fill:#F4A651;" d="M250.325,160.923c6.177-4.465,14.758-7.948,24.74-9.925c-5.931-1.174-12.355-1.819-19.065-1.819
	c-18.005,0-33.958,4.626-43.804,11.744c-7.585,5.483-3.801,17.438,5.558,17.438h38.13
	C246.523,178.359,242.741,166.405,250.325,160.923z"/>
<g>
	<path style="fill:#1D1D1F;" d="M339.09,144.972c-4.267,0-7.726-3.459-7.726-7.726V124.42c0-4.267,3.459-7.726,7.726-7.726
		s7.726,3.459,7.726,7.726v12.826C346.817,141.513,343.357,144.972,339.09,144.972z"/>
	<path style="fill:#1D1D1F;" d="M180.021,139.155c-1.714-2.301-4.242-3.694-7.112-3.694c-2.87,0-5.462,1.346-7.112,3.694
		c-2.612,3.716-7.741,4.61-11.456,2c-3.716-2.612-4.611-7.741-2-11.456c4.702-6.69,12.39-10.684,20.567-10.684
		s15.865,3.994,20.567,10.684c2.612,3.715,1.716,8.844-2,11.456C190.039,142.165,183.963,144.448,180.021,139.155z"/>
</g>
<g>
</g>
<g>
</g>
<g>
</g>
<g>
</g>
<g>
</g>
<g>
</g>
<g>
</g>
<g>
</g>
<g>
</g>
<g>
</g>
<g>
</g>
<g>
</g>
<g>
</g>
<g>
</g>
<g>
</g>
</svg>
