<svg id="Capa_1" enable-background="new 0 0 512 512" height="512" viewBox="0 0 512 512" width="512" xmlns="http://www.w3.org/2000/svg"><g><path d="m426.869 382.181c-12.085 0-19.421-13.872-12.082-23.875 18.259-24.882 26.382-59.038 24.145-101.517-.014-.263-.021-.526-.021-.789 0-2.817.307-69.409 27-105 4.97-6.626 14.373-7.971 21-3s7.971 14.373 3 21c-17.029 22.706-20.918 69.847-20.999 86.633 2.531 49.381-7.541 89.897-29.938 120.421-2.939 4.005-7.49 6.127-12.105 6.127z" fill="#00864f"/><path d="m307.336 191.537c-37.905-30.562-53.477-65.955-43.848-99.658 13.261-46.413-4.218-66.304-4.397-66.491-5.738-5.977-5.544-15.472.433-21.209 5.975-5.737 15.471-5.542 21.209.433 1.418 1.478 8.739 9.657 13.539 25.553 6.153 20.383 5.501 43.92-1.938 69.956-8.24 28.842 17.66 55.023 33.832 68.062 6.449 5.2 7.462 14.643 2.263 21.092-5.208 6.458-14.653 7.454-21.093 2.262z" fill="#00864f"/><path d="m81.836 485.087c-23.734-17.15-76.726-65.467-56.233-143.507 22.024-83.882-5.326-160.61-5.605-161.375-2.836-7.783 1.174-16.393 8.958-19.229 7.782-2.835 16.392 1.174 19.229 8.958 1.27 3.484 30.816 86.405 6.435 179.265-15.211 57.926 21.531 94.768 44.787 111.573 6.714 4.852 8.225 14.229 3.372 20.943-4.863 6.73-14.244 8.214-20.943 3.372z" fill="#00a763"/><path d="m194.392 263.679c-27.298-40.947 2.179-100.23 17.749-146.936 5.94-17.815 4.923-46.487-33.653-81.906-21.59-19.823-45.166-32.877-45.398-33.003-5.603-3.048-12.533-2.245-17.259 2.041-4.725 4.287-6.232 11.067-3.741 16.941.213.515 21.128 52.058.034 101.275-31.764 74.115-36.55 146.775.372 220.619 15.528 31.043 15.505 63.117-.069 95.331-2.915 6.029-1.48 13.26 3.516 17.72 5.003 4.466 12.351 5.062 18.003 1.489 22.167-14.012 47.285-23.762 74.657-28.981l9.087-1.567c6.405-1.088 11.099-5.902 12.301-11.828 11.731-57.789-3.703-103.372-35.599-151.195z" fill="#00ec89"/><path d="m440.017 350.23c-5.892-36.007-23.01-65.168-37.266-86.551-27.297-40.947 2.179-100.214 17.749-146.935 5.94-17.816 4.924-46.487-33.651-81.906-21.591-19.824-45.166-32.878-45.399-33.004-5.602-3.048-12.53-2.243-17.255 2.041-4.726 4.285-6.233 11.065-3.746 16.939.214.515 21.128 52.064.034 101.278-31.764 74.114-36.55 146.777.371 220.617 12.606 25.212 14.918 51.362 6.87 77.722-2.308 7.56 1.647 15.614 9.041 18.41 22.793 8.619 43.005 20.554 60.074 35.474 7.584 6.631 19.421 4.029 23.548-5.134 19.296-42.844 25.717-81.753 19.63-118.951z" fill="#00a763"/><path d="m295.652 291.521c-11.711 35.086-11.148 80.177-7.67 116.769.891 9.341-6.875 17.067-16.04 16.38-21.129-1.562-41.908-.4-62.74 3.48-9.345 2.059-18.196-4.947-18.28-14.52-.329-40.537 9.838-78.863 25.56-115.54 21.07-49.14.2-99.73-.01-100.23-2.48-5.87-.98-12.68 3.74-16.96 4.73-4.28 11.64-5.11 17.24-2.07 12.811 7.028 31.003 19.475 45.32 32.44 18.189 42.425 7.957 61.778 12.88 80.251z" fill="#00ec89"/><path d="m316.501 292.74c-11.711 35.086-31.997 78.959-28.52 115.55.891 9.341-6.875 17.067-16.04 16.38-5.95-.44-12.02-.67-18.03-.67v-235.04c35.981 24.03 76.339 62.557 62.59 103.78z" fill="#00a763"/><path d="m436.861 512h-365.9c-11.978 0-19.138-13.413-12.45-23.37 56.277-83.676 180-116.482 283.75-79.73 43.878 15.616 82.32 42.88 107.05 79.74 6.683 9.948-.455 23.36-12.45 23.36z" fill="#ffb454"/><path d="m436.861 512h-182.95v-118c88.426 0 159.687 41.408 195.4 94.64 6.683 9.948-.455 23.36-12.45 23.36z" fill="#ff7d47"/></g></svg>